<svg width="108" height="31" viewBox="0 0 108 31" fill="none" xmlns="http://www.w3.org/2000/svg">
<g clip-path="url(#clip0_1_1316)">
<path d="M51.2856 9.57238V6.11328H42.9678C38.4388 6.11328 34.7227 9.83621 34.7227 14.3506C34.7227 18.8944 38.4388 22.588 42.9969 22.588C47.5259 22.588 51.3001 18.8944 51.3001 14.4532C51.3146 12.709 50.7775 11.0088 49.7759 9.57238H51.2856ZM43.0404 19.1289C40.5001 19.1289 38.5114 17.0036 38.5114 14.292C38.5114 11.7123 40.5727 9.57238 43.0114 9.57238C45.5227 9.57238 47.5404 11.727 47.5404 14.3506C47.5404 16.9889 45.5081 19.1289 43.0404 19.1289Z" fill="#FF1C5C"/>
<path d="M41.0817 27.0862C40.1962 26.6465 39.4704 25.9283 39.0349 25.0195H35.043C36.0881 28.5812 39.3252 31.0143 42.9978 30.9997C46.772 30.9997 50.0236 28.4347 50.9962 25.0195H46.9897C45.9156 27.2328 43.2736 28.1562 41.0817 27.0862Z" fill="#FF1C5C"/>
<path d="M24.271 6.09766C24.2274 6.09766 24.1984 6.09766 24.1549 6.09766C19.6403 6.12697 16.0258 9.8499 16.0549 14.3936C16.0549 19.0107 19.742 22.587 24.5032 22.587C27.6532 22.587 30.8903 20.7988 31.9355 17.5596H27.8565C26.8984 18.7029 25.9694 19.1279 24.4162 19.1279C22.1952 19.1279 20.5549 17.9407 20.1049 16.0352H32.1823C32.2839 15.5516 32.342 15.0679 32.3274 14.5695C32.3129 9.67402 28.9162 6.09766 24.271 6.09766ZM19.9742 12.7081C20.5694 10.7 22.0936 9.58607 24.3145 9.58607C26.6226 9.57142 28.1468 10.6854 28.6113 12.7081H19.9742Z" fill="#1B315E"/>
<path d="M3.74516 1.21875H0V14.7474C0 19.936 2.84516 22.589 6.80807 22.589C10.8 22.589 13.6452 19.9653 13.6452 14.7474V12.6953H9.88548V14.7474C9.88548 17.9426 8.68065 18.9393 6.82258 18.9393C4.90645 18.9393 3.73065 17.9133 3.73065 14.7474V9.5587H13.6452V6.11426H3.74516V1.21875Z" fill="#1B315E"/>
<path d="M61.9702 6.09766C61.9412 6.09766 61.8976 6.09766 61.8541 6.09766C57.3396 6.12697 53.725 9.8499 53.7541 14.3936C53.7541 19.0107 57.4412 22.587 62.2025 22.587C65.3525 22.587 68.5896 20.7988 69.6347 17.5596H65.5557C64.5976 18.7029 63.6686 19.1279 62.1154 19.1279C59.8799 19.1279 58.2541 17.9407 57.8041 16.0352H69.8815C69.9831 15.5516 70.0267 15.0679 70.0267 14.5695C70.0267 9.67402 66.6154 6.09766 61.9702 6.09766ZM57.6734 12.7081C58.2686 10.7 59.7928 9.58607 62.0138 9.58607C64.3218 9.57142 65.846 10.6854 66.325 12.7081H57.6734Z" fill="#1B315E"/>
<path d="M106.519 6.24397H106.737L106.723 6.94752H106.839V6.24397H107.1V6.15603H106.519V6.24397Z" fill="white"/>
<path d="M98.1592 6.15625C93.6302 6.15625 89.9141 9.87918 89.9141 14.3936C89.9141 18.9373 93.6302 22.631 98.1883 22.631C99.7995 22.631 101.367 22.1619 102.717 21.2825V22.631H106.491V14.5109C106.491 9.82055 102.862 6.15625 98.1592 6.15625ZM98.2173 19.1719C95.677 19.1719 93.6883 17.0466 93.6883 14.335C93.6883 11.7553 95.7495 9.61535 98.1883 9.61535C100.7 9.61535 102.717 11.77 102.717 14.3936C102.732 17.0466 100.7 19.1719 98.2173 19.1719Z" fill="#1B315E"/>
<path d="M107.972 6.14062H107.842L107.697 6.52171C107.653 6.62431 107.624 6.71226 107.61 6.78554C107.595 6.6976 107.566 6.62431 107.537 6.52171L107.406 6.14062H107.276L107.203 6.93211H107.305L107.334 6.595C107.348 6.47774 107.348 6.34583 107.348 6.24323C107.363 6.33117 107.392 6.43377 107.435 6.55103L107.566 6.93211H107.624L107.769 6.55103C107.813 6.44843 107.842 6.34583 107.871 6.25788C107.871 6.36048 107.885 6.47774 107.885 6.595L107.914 6.93211H108.016L107.972 6.14062Z" fill="white"/>
<path d="M85.6307 -0.015625C84.4114 -0.015625 83.4388 0.966408 83.4533 2.18296C83.4533 3.3995 84.4259 4.38154 85.6307 4.38154C86.8355 4.38154 87.8081 3.3995 87.8081 2.18296C87.8081 0.966408 86.8355 -0.015625 85.6307 -0.015625Z" fill="#1B315E"/>
<path d="M87.5303 6.47656H83.7852V22.5995H87.5303V6.47656Z" fill="#1B315E"/>
<path d="M80.2745 6.47656C76.181 6.47656 72.7987 9.67183 72.4939 13.7759C72.4794 13.9664 72.4648 14.1423 72.4648 14.3328C72.4648 16.3995 72.4939 22.6142 72.4939 22.6142H76.239V14.582C76.239 11.9144 78.3729 10.2728 81.0148 10.2728H81.3632L81.3487 6.47656H80.2745Z" fill="#1B315E"/>
</g>
<defs>
<clipPath id="clip0_1_1316">
<rect width="108" height="31" fill="white"/>
</clipPath>
</defs>
</svg>
